<mxfile host="Electron" agent="Mozilla/5.0 (Macintosh; Intel Mac OS X 10_15_7) AppleWebKit/537.36 (KHTML, like Gecko) draw.io/24.7.17 Chrome/128.0.6613.36 Electron/32.0.1 Safari/537.36" version="24.7.17" pages="2">
  <diagram name="Deployment" id="pINQiqYsl1FKt31ubT8U">
    <mxGraphModel dx="1327" dy="808" grid="1" gridSize="10" guides="1" tooltips="1" connect="1" arrows="1" fold="1" page="1" pageScale="1" pageWidth="1169" pageHeight="827" math="0" shadow="0">
      <root>
        <mxCell id="0" />
        <mxCell id="1" parent="0" />
        <mxCell id="fn9CwPAERqVmxTf8U_Xu-1" value="&lt;div&gt;&lt;br&gt;&lt;/div&gt;&lt;div&gt;&lt;br&gt;&lt;/div&gt;«device»&lt;div&gt;LibrarianInterface&lt;br&gt;&lt;/div&gt;" style="verticalAlign=top;align=center;spacingTop=8;spacingLeft=2;spacingRight=12;shape=cube;size=10;direction=south;fontStyle=4;html=1;whiteSpace=wrap;" vertex="1" parent="1">
          <mxGeometry x="130" y="133" width="200" height="247" as="geometry" />
        </mxCell>
        <mxCell id="fn9CwPAERqVmxTf8U_Xu-2" value="&lt;div&gt;&lt;br&gt;&lt;/div&gt;&lt;div&gt;&lt;br&gt;&lt;/div&gt;«device»&lt;div&gt;Server&lt;/div&gt;" style="verticalAlign=top;align=center;spacingTop=8;spacingLeft=2;spacingRight=12;shape=cube;size=10;direction=south;fontStyle=4;html=1;whiteSpace=wrap;" vertex="1" parent="1">
          <mxGeometry x="480" y="58" width="240" height="722" as="geometry" />
        </mxCell>
        <mxCell id="fn9CwPAERqVmxTf8U_Xu-3" value="&lt;div&gt;&lt;br&gt;&lt;/div&gt;&lt;div&gt;&lt;span style=&quot;background-color: initial;&quot;&gt;«&lt;/span&gt;&lt;span style=&quot;background-color: initial;&quot;&gt;ExecutionEnvironment&lt;/span&gt;&lt;span style=&quot;background-color: initial;&quot;&gt;»&lt;/span&gt;&lt;br&gt;&lt;/div&gt;&lt;div&gt;BookInventoryService&lt;br&gt;&lt;/div&gt;" style="verticalAlign=top;align=center;spacingTop=8;spacingLeft=2;spacingRight=12;shape=cube;size=10;direction=south;fontStyle=4;html=1;whiteSpace=wrap;" vertex="1" parent="1">
          <mxGeometry x="500" y="148" width="175" height="90" as="geometry" />
        </mxCell>
        <mxCell id="fn9CwPAERqVmxTf8U_Xu-4" value="&lt;div&gt;&lt;br&gt;&lt;/div&gt;&lt;div&gt;&lt;span style=&quot;background-color: initial;&quot;&gt;«&lt;/span&gt;ExecutionEnvironment&lt;span style=&quot;background-color: initial;&quot;&gt;»&lt;/span&gt;&lt;/div&gt;&lt;div&gt;SeatReservationService&lt;br&gt;&lt;/div&gt;" style="verticalAlign=top;align=center;spacingTop=8;spacingLeft=2;spacingRight=12;shape=cube;size=10;direction=south;fontStyle=4;html=1;whiteSpace=wrap;" vertex="1" parent="1">
          <mxGeometry x="500" y="258" width="175" height="90" as="geometry" />
        </mxCell>
        <mxCell id="fn9CwPAERqVmxTf8U_Xu-5" value="&lt;div&gt;&lt;br&gt;&lt;/div&gt;&lt;div&gt;&lt;span style=&quot;background-color: initial;&quot;&gt;«&lt;/span&gt;ExecutionEnvironment&lt;span style=&quot;background-color: initial;&quot;&gt;»&lt;/span&gt;&lt;/div&gt;&lt;div&gt;ReaderAccountService&lt;br&gt;&lt;/div&gt;" style="verticalAlign=top;align=center;spacingTop=8;spacingLeft=2;spacingRight=12;shape=cube;size=10;direction=south;fontStyle=4;html=1;whiteSpace=wrap;" vertex="1" parent="1">
          <mxGeometry x="500" y="368" width="175" height="90" as="geometry" />
        </mxCell>
        <mxCell id="fn9CwPAERqVmxTf8U_Xu-6" value="&lt;div&gt;&lt;br&gt;&lt;/div&gt;&lt;div&gt;&lt;br&gt;&lt;/div&gt;«device»:&lt;div&gt;AnalyticsSystem&lt;br&gt;&lt;/div&gt;" style="verticalAlign=top;align=center;spacingTop=8;spacingLeft=2;spacingRight=12;shape=cube;size=10;direction=south;fontStyle=4;html=1;whiteSpace=wrap;" vertex="1" parent="1">
          <mxGeometry x="870" y="318" width="180" height="120" as="geometry" />
        </mxCell>
        <mxCell id="fn9CwPAERqVmxTf8U_Xu-8" value="" style="line;strokeWidth=1;fillColor=none;align=left;verticalAlign=middle;spacingTop=-1;spacingLeft=3;spacingRight=3;rotatable=0;labelPosition=right;points=[];portConstraint=eastwest;strokeColor=inherit;" vertex="1" parent="1">
          <mxGeometry x="720" y="374" width="150" height="8" as="geometry" />
        </mxCell>
        <mxCell id="fn9CwPAERqVmxTf8U_Xu-9" value="&lt;span style=&quot;text-wrap: wrap;&quot;&gt;«&lt;/span&gt;http&lt;span style=&quot;text-wrap: wrap;&quot;&gt;»&lt;/span&gt;" style="text;html=1;align=center;verticalAlign=middle;resizable=0;points=[];autosize=1;strokeColor=none;fillColor=none;" vertex="1" parent="1">
          <mxGeometry x="765" y="352" width="60" height="30" as="geometry" />
        </mxCell>
        <mxCell id="fn9CwPAERqVmxTf8U_Xu-10" value="" style="line;strokeWidth=1;fillColor=none;align=left;verticalAlign=middle;spacingTop=-1;spacingLeft=3;spacingRight=3;rotatable=0;labelPosition=right;points=[];portConstraint=eastwest;strokeColor=inherit;" vertex="1" parent="1">
          <mxGeometry x="330" y="189" width="150" height="8" as="geometry" />
        </mxCell>
        <mxCell id="fn9CwPAERqVmxTf8U_Xu-11" value="REST API (https)" style="text;html=1;align=center;verticalAlign=middle;resizable=0;points=[];autosize=1;strokeColor=none;fillColor=none;" vertex="1" parent="1">
          <mxGeometry x="350" y="167" width="110" height="30" as="geometry" />
        </mxCell>
        <mxCell id="fn9CwPAERqVmxTf8U_Xu-12" value="&lt;font style=&quot;font-size: 18px;&quot;&gt;*&lt;/font&gt;" style="text;html=1;align=center;verticalAlign=middle;resizable=0;points=[];autosize=1;strokeColor=none;fillColor=none;" vertex="1" parent="1">
          <mxGeometry x="330" y="167" width="30" height="40" as="geometry" />
        </mxCell>
        <mxCell id="fn9CwPAERqVmxTf8U_Xu-13" value="1" style="text;html=1;align=center;verticalAlign=middle;resizable=0;points=[];autosize=1;strokeColor=none;fillColor=none;" vertex="1" parent="1">
          <mxGeometry x="450" y="167" width="30" height="30" as="geometry" />
        </mxCell>
        <mxCell id="fn9CwPAERqVmxTf8U_Xu-14" value="1" style="text;html=1;align=center;verticalAlign=middle;resizable=0;points=[];autosize=1;strokeColor=none;fillColor=none;" vertex="1" parent="1">
          <mxGeometry x="715" y="352" width="30" height="30" as="geometry" />
        </mxCell>
        <mxCell id="fn9CwPAERqVmxTf8U_Xu-15" value="1" style="text;html=1;align=center;verticalAlign=middle;resizable=0;points=[];autosize=1;strokeColor=none;fillColor=none;" vertex="1" parent="1">
          <mxGeometry x="840" y="352" width="30" height="30" as="geometry" />
        </mxCell>
        <mxCell id="fn9CwPAERqVmxTf8U_Xu-16" value="&lt;div&gt;&lt;br&gt;&lt;/div&gt;&lt;div&gt;&lt;br&gt;&lt;/div&gt;«device»&lt;div&gt;LibraryUserDashboard&lt;br&gt;&lt;/div&gt;" style="verticalAlign=top;align=center;spacingTop=8;spacingLeft=2;spacingRight=12;shape=cube;size=10;direction=south;fontStyle=4;html=1;whiteSpace=wrap;" vertex="1" parent="1">
          <mxGeometry x="130" y="438" width="200" height="252" as="geometry" />
        </mxCell>
        <mxCell id="fn9CwPAERqVmxTf8U_Xu-17" value="" style="line;strokeWidth=1;fillColor=none;align=left;verticalAlign=middle;spacingTop=-1;spacingLeft=3;spacingRight=3;rotatable=0;labelPosition=right;points=[];portConstraint=eastwest;strokeColor=inherit;" vertex="1" parent="1">
          <mxGeometry x="330" y="494" width="150" height="8" as="geometry" />
        </mxCell>
        <mxCell id="fn9CwPAERqVmxTf8U_Xu-18" value="REST API (https)" style="text;html=1;align=center;verticalAlign=middle;resizable=0;points=[];autosize=1;strokeColor=none;fillColor=none;" vertex="1" parent="1">
          <mxGeometry x="350" y="472" width="110" height="30" as="geometry" />
        </mxCell>
        <mxCell id="fn9CwPAERqVmxTf8U_Xu-19" value="&lt;font style=&quot;font-size: 18px;&quot;&gt;*&lt;/font&gt;" style="text;html=1;align=center;verticalAlign=middle;resizable=0;points=[];autosize=1;strokeColor=none;fillColor=none;" vertex="1" parent="1">
          <mxGeometry x="330" y="472" width="30" height="40" as="geometry" />
        </mxCell>
        <mxCell id="fn9CwPAERqVmxTf8U_Xu-20" value="1" style="text;html=1;align=center;verticalAlign=middle;resizable=0;points=[];autosize=1;strokeColor=none;fillColor=none;" vertex="1" parent="1">
          <mxGeometry x="450" y="472" width="30" height="30" as="geometry" />
        </mxCell>
        <mxCell id="fn9CwPAERqVmxTf8U_Xu-21" value="&lt;div&gt;&lt;br&gt;&lt;/div&gt;&lt;div&gt;&lt;span style=&quot;background-color: initial;&quot;&gt;«&lt;/span&gt;ExecutionEnvironment&lt;span style=&quot;background-color: initial;&quot;&gt;»&lt;/span&gt;&lt;/div&gt;&lt;div&gt;AuthenticationService&lt;br&gt;&lt;/div&gt;" style="verticalAlign=top;align=center;spacingTop=8;spacingLeft=2;spacingRight=12;shape=cube;size=10;direction=south;fontStyle=4;html=1;whiteSpace=wrap;" vertex="1" parent="1">
          <mxGeometry x="500" y="478" width="175" height="90" as="geometry" />
        </mxCell>
        <mxCell id="fn9CwPAERqVmxTf8U_Xu-22" value="&lt;div&gt;&lt;br&gt;&lt;/div&gt;&lt;div&gt;&lt;span style=&quot;background-color: initial;&quot;&gt;«&lt;/span&gt;ExecutionEnvironment&lt;span style=&quot;background-color: initial;&quot;&gt;»&lt;/span&gt;&lt;/div&gt;&lt;div&gt;NotificationService&lt;br&gt;&lt;/div&gt;" style="verticalAlign=top;align=center;spacingTop=8;spacingLeft=2;spacingRight=12;shape=cube;size=10;direction=south;fontStyle=4;html=1;whiteSpace=wrap;" vertex="1" parent="1">
          <mxGeometry x="497" y="588" width="175" height="90" as="geometry" />
        </mxCell>
        <mxCell id="fn9CwPAERqVmxTf8U_Xu-23" value="LibraryUserPortal.html" style="html=1;whiteSpace=wrap;" vertex="1" parent="1">
          <mxGeometry x="152.5" y="538" width="145" height="50" as="geometry" />
        </mxCell>
        <mxCell id="fn9CwPAERqVmxTf8U_Xu-24" value="LibraryManagementClient.exe" style="html=1;whiteSpace=wrap;" vertex="1" parent="1">
          <mxGeometry x="140" y="238" width="170" height="50" as="geometry" />
        </mxCell>
        <mxCell id="fn9CwPAERqVmxTf8U_Xu-25" value="«artifact»&lt;div&gt;DatabaseInstance&lt;/div&gt;" style="html=1;whiteSpace=wrap;" vertex="1" parent="1">
          <mxGeometry x="497" y="700" width="178" height="50" as="geometry" />
        </mxCell>
        <mxCell id="fn9CwPAERqVmxTf8U_Xu-26" value="&lt;div style=&quot;&quot;&gt;&lt;span style=&quot;background-color: initial;&quot;&gt;CacheStorage&lt;/span&gt;&lt;span style=&quot;background-color: initial;&quot;&gt;.json&lt;/span&gt;&lt;br&gt;&lt;/div&gt;" style="html=1;whiteSpace=wrap;" vertex="1" parent="1">
          <mxGeometry x="152.5" y="608" width="145" height="50" as="geometry" />
        </mxCell>
        <mxCell id="fn9CwPAERqVmxTf8U_Xu-27" value="&lt;div style=&quot;text-align: start;&quot;&gt;&lt;span style=&quot;background-color: initial; text-align: center;&quot;&gt;CacheStorage&lt;/span&gt;&lt;span style=&quot;background-color: initial;&quot;&gt;.json&lt;/span&gt;&lt;/div&gt;" style="html=1;whiteSpace=wrap;" vertex="1" parent="1">
          <mxGeometry x="140" y="310" width="170" height="50" as="geometry" />
        </mxCell>
        <mxCell id="fn9CwPAERqVmxTf8U_Xu-28" value="" style="line;strokeWidth=1;fillColor=none;align=left;verticalAlign=middle;spacingTop=-1;spacingLeft=3;spacingRight=3;rotatable=0;labelPosition=right;points=[];portConstraint=eastwest;strokeColor=inherit;" vertex="1" parent="1">
          <mxGeometry x="297.5" y="629" width="182.5" height="8" as="geometry" />
        </mxCell>
        <mxCell id="fn9CwPAERqVmxTf8U_Xu-29" value="" style="line;strokeWidth=1;fillColor=none;align=left;verticalAlign=middle;spacingTop=-1;spacingLeft=3;spacingRight=3;rotatable=0;labelPosition=right;points=[];portConstraint=eastwest;strokeColor=inherit;" vertex="1" parent="1">
          <mxGeometry x="310" y="331" width="170" height="8" as="geometry" />
        </mxCell>
        <mxCell id="fn9CwPAERqVmxTf8U_Xu-30" value="REST API" style="text;html=1;align=center;verticalAlign=middle;resizable=0;points=[];autosize=1;strokeColor=none;fillColor=none;" vertex="1" parent="1">
          <mxGeometry x="350" y="308" width="80" height="30" as="geometry" />
        </mxCell>
        <mxCell id="fn9CwPAERqVmxTf8U_Xu-31" value="REST API" style="text;html=1;align=center;verticalAlign=middle;resizable=0;points=[];autosize=1;strokeColor=none;fillColor=none;" vertex="1" parent="1">
          <mxGeometry x="355" y="607" width="80" height="30" as="geometry" />
        </mxCell>
        <mxCell id="fn9CwPAERqVmxTf8U_Xu-32" value="&lt;div style=&quot;&quot;&gt;«artifact»&lt;br&gt;&lt;/div&gt;&lt;div style=&quot;&quot;&gt;AnalyticsDatabase&lt;br&gt;&lt;/div&gt;" style="html=1;whiteSpace=wrap;" vertex="1" parent="1">
          <mxGeometry x="877.5" y="506" width="165" height="62" as="geometry" />
        </mxCell>
        <mxCell id="fn9CwPAERqVmxTf8U_Xu-33" value="&lt;span style=&quot;font-size: 12px; text-wrap: wrap; background-color: rgb(251, 251, 251); text-decoration-line: underline;&quot;&gt;«deploy»&lt;/span&gt;" style="html=1;verticalAlign=bottom;endArrow=open;dashed=1;endSize=8;curved=0;rounded=0;exitX=0.5;exitY=0;exitDx=0;exitDy=0;entryX=0.988;entryY=0.502;entryDx=0;entryDy=0;entryPerimeter=0;" edge="1" parent="1" source="fn9CwPAERqVmxTf8U_Xu-32" target="fn9CwPAERqVmxTf8U_Xu-6">
          <mxGeometry x="-0.2512" relative="1" as="geometry">
            <mxPoint x="890" y="450" as="sourcePoint" />
            <mxPoint x="810" y="450" as="targetPoint" />
            <mxPoint as="offset" />
          </mxGeometry>
        </mxCell>
      </root>
    </mxGraphModel>
  </diagram>
  <diagram id="V5Ml0XW5WaBlX_dH4evW" name="Component">
    <mxGraphModel dx="1137" dy="692" grid="1" gridSize="10" guides="1" tooltips="1" connect="1" arrows="1" fold="1" page="1" pageScale="1" pageWidth="1169" pageHeight="827" math="0" shadow="0">
      <root>
        <mxCell id="0" />
        <mxCell id="1" parent="0" />
        <mxCell id="en2-nNBvhGY65yUKxZ8V-1" value="&lt;p style=&quot;margin:0px;margin-top:6px;text-align:center;&quot;&gt;&lt;b&gt;Component&lt;/b&gt;&lt;/p&gt;&lt;p style=&quot;margin:0px;margin-top:6px;text-align:center;&quot;&gt;&lt;b&gt;BookReservation&lt;/b&gt;&lt;/p&gt;&lt;hr size=&quot;1&quot; style=&quot;border-style:solid;&quot;&gt;&lt;p style=&quot;margin:0px;margin-left:8px;&quot;&gt;&lt;br&gt;&lt;/p&gt;" style="align=left;overflow=fill;html=1;dropTarget=0;whiteSpace=wrap;" vertex="1" parent="1">
          <mxGeometry x="160" y="120" width="850" height="580" as="geometry" />
        </mxCell>
        <mxCell id="en2-nNBvhGY65yUKxZ8V-2" value="" style="shape=component;jettyWidth=8;jettyHeight=4;" vertex="1" parent="en2-nNBvhGY65yUKxZ8V-1">
          <mxGeometry x="1" width="20" height="20" relative="1" as="geometry">
            <mxPoint x="-24" y="4" as="offset" />
          </mxGeometry>
        </mxCell>
        <mxCell id="en2-nNBvhGY65yUKxZ8V-3" value="«component»&lt;br&gt;ReservationManagement" style="html=1;dropTarget=0;whiteSpace=wrap;" vertex="1" parent="1">
          <mxGeometry x="230" y="260" width="180" height="90" as="geometry" />
        </mxCell>
        <mxCell id="en2-nNBvhGY65yUKxZ8V-4" value="" style="shape=module;jettyWidth=8;jettyHeight=4;" vertex="1" parent="en2-nNBvhGY65yUKxZ8V-3">
          <mxGeometry x="1" width="20" height="20" relative="1" as="geometry">
            <mxPoint x="-27" y="7" as="offset" />
          </mxGeometry>
        </mxCell>
        <mxCell id="en2-nNBvhGY65yUKxZ8V-5" value="«component»&lt;br&gt;UserManagement" style="html=1;dropTarget=0;whiteSpace=wrap;" vertex="1" parent="1">
          <mxGeometry x="230" y="470" width="180" height="90" as="geometry" />
        </mxCell>
        <mxCell id="en2-nNBvhGY65yUKxZ8V-6" value="" style="shape=module;jettyWidth=8;jettyHeight=4;" vertex="1" parent="en2-nNBvhGY65yUKxZ8V-5">
          <mxGeometry x="1" width="20" height="20" relative="1" as="geometry">
            <mxPoint x="-27" y="7" as="offset" />
          </mxGeometry>
        </mxCell>
        <mxCell id="en2-nNBvhGY65yUKxZ8V-7" value="«component»&lt;br&gt;&lt;span style=&quot;color: rgba(0, 0, 0, 0); font-family: monospace; font-size: 0px; text-align: start; text-wrap: nowrap;&quot;&gt;%3CmxGraphModel%3E%3Croot%3E%3CmxCell%20id%3D%220%22%2F%3E%3CmxCell%20id%3D%221%22%20parent%3D%220%22%2F%3E%3CmxCell%20id%3D%222%22%20value%3D%22%C2%ABcomponent%C2%BB%26lt%3Bbr%26gt%3BReservationManagement%22%20style%3D%22html%3D1%3BdropTarget%3D0%3BwhiteSpace%3Dwrap%3B%22%20vertex%3D%221%22%20parent%3D%221%22%3E%3CmxGeometry%20x%3D%22230%22%20y%3D%22260%22%20width%3D%22180%22%20height%3D%2290%22%20as%3D%22geometry%22%2F%3E%3C%2FmxCell%3E%3CmxCell%20id%3D%223%22%20value%3D%22%22%20style%3D%22shape%3Dmodule%3BjettyWidth%3D8%3BjettyHeight%3D4%3B%22%20vertex%3D%221%22%20parent%3D%222%22%3E%3CmxGeometry%20x%3D%221%22%20width%3D%2220%22%20height%3D%2220%22%20relative%3D%221%22%20as%3D%22geometry%22%3E%3CmxPoint%20x%3D%22-27%22%20y%3D%227%22%20as%3D%22offset%22%2F%3E%3C%2FmxGeometry%3E%3C%2FmxCell%3E%3C%2Froot%3E%3C%2FmxGraphModel%3E&lt;/span&gt;Catalog" style="html=1;dropTarget=0;whiteSpace=wrap;" vertex="1" parent="1">
          <mxGeometry x="510" y="260" width="180" height="90" as="geometry" />
        </mxCell>
        <mxCell id="en2-nNBvhGY65yUKxZ8V-8" value="" style="shape=module;jettyWidth=8;jettyHeight=4;" vertex="1" parent="en2-nNBvhGY65yUKxZ8V-7">
          <mxGeometry x="1" width="20" height="20" relative="1" as="geometry">
            <mxPoint x="-27" y="7" as="offset" />
          </mxGeometry>
        </mxCell>
        <mxCell id="en2-nNBvhGY65yUKxZ8V-9" value="«component»&lt;br&gt;&lt;span style=&quot;color: rgba(0, 0, 0, 0); font-family: monospace; font-size: 0px; text-align: start; text-wrap: nowrap;&quot;&gt;%3CmxGraphModel%3E%3Croot%3E%3CmxCell%20id%3D%220%22%2F%3E%3CmxCell%20id%3D%221%22%20parent%3D%220%22%2F%3E%3CmxCell%20id%3D%222%22%20value%3D%22%C2%ABcomponent%C2%BB%26lt%3Bbr%26gt%3BReservationManagement%22%20style%3D%22html%3D1%3BdropTarget%3D0%3BwhiteSpace%3Dwrap%3B%22%20vertex%3D%221%22%20parent%3D%221%22%3E%3CmxGeometry%20x%3D%22230%22%20y%3D%22260%22%20width%3D%22180%22%20height%3D%2290%22%20as%3D%22geometry%22%2F%3E%3C%2FmxCell%3E%3CmxCell%20id%3D%223%22%20value%3D%22%22%20style%3D%22shape%3Dmodule%3BjettyWidth%3D8%3BjettyHeight%3D4%3B%22%20vertex%3D%221%22%20parent%3D%222%22%3E%3CmxGeometry%20x%3D%221%22%20width%3D%2220%22%20height%3D%2220%22%20relative%3D%221%22%20as%3D%22geometry%22%3E%3CmxPoint%20x%3D%22-27%22%20y%3D%227%22%20as%3D%22offset%22%2F%3E%3C%2FmxGeometry%3E%3C%2FmxCell%3E%3C%2Froot%3E%3C%2FmxGraphModel%&lt;/span&gt;NotificationService" style="html=1;dropTarget=0;whiteSpace=wrap;" vertex="1" parent="1">
          <mxGeometry x="780" y="260" width="180" height="90" as="geometry" />
        </mxCell>
        <mxCell id="en2-nNBvhGY65yUKxZ8V-10" value="" style="shape=module;jettyWidth=8;jettyHeight=4;" vertex="1" parent="en2-nNBvhGY65yUKxZ8V-9">
          <mxGeometry x="1" width="20" height="20" relative="1" as="geometry">
            <mxPoint x="-27" y="7" as="offset" />
          </mxGeometry>
        </mxCell>
        <mxCell id="en2-nNBvhGY65yUKxZ8V-11" value="«component»&lt;br&gt;&lt;span style=&quot;color: rgba(0, 0, 0, 0); font-family: monospace; font-size: 0px; text-align: start; text-wrap: nowrap;&quot;&gt;%3CmxGraphModel%3E%3Croot%3E%3CmxCell%20id%3D%220%22%2F%3E%3CmxCell%20id%3D%221%22%20parent%3D%220%22%2F%3E%3CmxCell%20id%3D%222%22%20value%3D%22%C2%ABcomponent%C2%BB%26lt%3Bbr%26gt%3BReservationManagement%22%20style%3D%22html%3D1%3BdropTarget%3D0%3BwhiteSpace%3Dwrap%3B%22%20vertex%3D%221%22%20parent%3D%221%22%3E%3CmxGeometry%20x%3D%22230%22%20y%3D%22260%22%20width%3D%22180%22%20height%3D%2290%22%20as%3D%22geometry%22%2F%3E%3C%2FmxCell%3E%3CmxCell%20id%3D%223%22%20value%3D%22%22%20style%3D%22shape%3Dmodule%3BjettyWidth%3D8%3BjettyHeight%3D4%3B%22%20vertex%3D%221%22%20parent%3D%222%22%3E%3CmxGeometry%20x%3D%221%22%20width%3D%2220%22%20height%3D%2220%22%20relative%3D%221%22%20as%3D%22geometry%22%3E%3CmxPoint%20x%3D%22-27%22%20y%3D%227%22%20as%3D%22offset%22%2F%3E%3C%2FmxGeometry%3E%3C%2FmxCell%3E%3C%2Froot%3E%3C%2FmxGraphModel%&lt;/span&gt;DatabaseAccess" style="html=1;dropTarget=0;whiteSpace=wrap;" vertex="1" parent="1">
          <mxGeometry x="510" y="470" width="180" height="90" as="geometry" />
        </mxCell>
        <mxCell id="en2-nNBvhGY65yUKxZ8V-12" value="" style="shape=module;jettyWidth=8;jettyHeight=4;" vertex="1" parent="en2-nNBvhGY65yUKxZ8V-11">
          <mxGeometry x="1" width="20" height="20" relative="1" as="geometry">
            <mxPoint x="-27" y="7" as="offset" />
          </mxGeometry>
        </mxCell>
        <mxCell id="en2-nNBvhGY65yUKxZ8V-13" value="«component»&lt;br&gt;&lt;span style=&quot;color: rgba(0, 0, 0, 0); font-family: monospace; font-size: 0px; text-align: start; text-wrap: nowrap;&quot;&gt;%3CmxGraphModel%3E%3Croot%3E%3CmxCell%20id%3D%220%22%2F%3E%3CmxCell%20id%3D%221%22%20parent%3D%220%22%2F%3E%3CmxCell%20id%3D%222%22%20value%3D%22%C2%ABcomponent%C2%BB%26lt%3Bbr%26gt%3BReservationManagement%22%20style%3D%22html%3D1%3BdropTarget%3D0%3BwhiteSpace%3Dwrap%3B%22%20vertex%3D%221%22%20parent%3D%221%22%3E%3CmxGeometry%20x%3D%22230%22%20y%3D%22260%22%20width%3D%22180%22%20height%3D%2290%22%20as%3D%22geometry%22%2F%3E%3C%2FmxCell%3E%3CmxCell%20id%3D%223%22%20value%3D%22%22%20style%3D%22shape%3Dmodule%3BjettyWidth%3D8%3BjettyHeight%3D4%3B%22%20vertex%3D%221%22%20parent%3D%222%22%3E%3CmxGeometry%20x%3D%221%22%20width%3D%2220%22%20height%3D%2220%22%20relative%3D%221%22%20as%3D%22geometry%22%3E%3CmxPoint%20x%3D%22-27%22%20y%3D%227%22%20as%3D%22offset%22%2F%3E%3C%2FmxGeometry%3E%3C%2FmxCell%3E%3C%2Froot%3E%3C%2FmxGraphModel%&lt;/span&gt;AnalyticsService" style="html=1;dropTarget=0;whiteSpace=wrap;" vertex="1" parent="1">
          <mxGeometry x="780" y="470" width="180" height="90" as="geometry" />
        </mxCell>
        <mxCell id="en2-nNBvhGY65yUKxZ8V-14" value="" style="shape=module;jettyWidth=8;jettyHeight=4;" vertex="1" parent="en2-nNBvhGY65yUKxZ8V-13">
          <mxGeometry x="1" width="20" height="20" relative="1" as="geometry">
            <mxPoint x="-27" y="7" as="offset" />
          </mxGeometry>
        </mxCell>
        <mxCell id="en2-nNBvhGY65yUKxZ8V-17" value="" style="ellipse;whiteSpace=wrap;html=1;align=center;aspect=fixed;fillColor=none;strokeColor=none;resizable=0;perimeter=centerPerimeter;rotatable=0;allowArrows=0;points=[];outlineConnect=1;" vertex="1" parent="1">
          <mxGeometry x="575" y="410" width="10" height="10" as="geometry" />
        </mxCell>
        <mxCell id="en2-nNBvhGY65yUKxZ8V-20" value="" style="rounded=0;whiteSpace=wrap;html=1;" vertex="1" parent="1">
          <mxGeometry x="150" y="290" width="20" height="20" as="geometry" />
        </mxCell>
        <mxCell id="en2-nNBvhGY65yUKxZ8V-21" value="" style="rounded=0;whiteSpace=wrap;html=1;" vertex="1" parent="1">
          <mxGeometry x="220" y="290" width="20" height="20" as="geometry" />
        </mxCell>
        <mxCell id="en2-nNBvhGY65yUKxZ8V-24" value="" style="ellipse;whiteSpace=wrap;html=1;align=center;aspect=fixed;fillColor=none;strokeColor=none;resizable=0;perimeter=centerPerimeter;rotatable=0;allowArrows=0;points=[];outlineConnect=1;" vertex="1" parent="1">
          <mxGeometry x="285" y="340" width="10" height="10" as="geometry" />
        </mxCell>
        <mxCell id="en2-nNBvhGY65yUKxZ8V-25" value="ICatalog" style="text;html=1;align=center;verticalAlign=middle;resizable=0;points=[];autosize=1;strokeColor=none;fillColor=none;" vertex="1" parent="1">
          <mxGeometry x="50" y="285" width="70" height="30" as="geometry" />
        </mxCell>
        <mxCell id="en2-nNBvhGY65yUKxZ8V-26" value="" style="line;strokeWidth=1;fillColor=none;align=left;verticalAlign=middle;spacingTop=-1;spacingLeft=3;spacingRight=3;rotatable=0;labelPosition=right;points=[];portConstraint=eastwest;strokeColor=inherit;" vertex="1" parent="1">
          <mxGeometry x="170" y="296" width="50" height="8" as="geometry" />
        </mxCell>
        <mxCell id="en2-nNBvhGY65yUKxZ8V-27" value="" style="rounded=0;orthogonalLoop=1;jettySize=auto;html=1;endArrow=halfCircle;endFill=0;endSize=6;strokeWidth=1;sketch=0;" edge="1" target="en2-nNBvhGY65yUKxZ8V-25" parent="1">
          <mxGeometry relative="1" as="geometry">
            <mxPoint x="150" y="300" as="sourcePoint" />
            <mxPoint x="130" y="300" as="targetPoint" />
          </mxGeometry>
        </mxCell>
        <mxCell id="en2-nNBvhGY65yUKxZ8V-28" value="" style="rounded=0;orthogonalLoop=1;jettySize=auto;html=1;endArrow=oval;endFill=0;sketch=0;sourcePerimeterSpacing=0;targetPerimeterSpacing=0;endSize=10;exitX=0.25;exitY=0;exitDx=0;exitDy=0;entryX=1.014;entryY=0.647;entryDx=0;entryDy=0;entryPerimeter=0;" edge="1" target="en2-nNBvhGY65yUKxZ8V-35" parent="1" source="en2-nNBvhGY65yUKxZ8V-7">
          <mxGeometry relative="1" as="geometry">
            <mxPoint x="210" y="325" as="sourcePoint" />
            <mxPoint x="120" y="240" as="targetPoint" />
            <Array as="points">
              <mxPoint x="555" y="240" />
            </Array>
          </mxGeometry>
        </mxCell>
        <mxCell id="en2-nNBvhGY65yUKxZ8V-29" value="" style="ellipse;whiteSpace=wrap;html=1;align=center;aspect=fixed;fillColor=none;strokeColor=none;resizable=0;perimeter=centerPerimeter;rotatable=0;allowArrows=0;points=[];outlineConnect=1;" vertex="1" parent="1">
          <mxGeometry x="120" y="330" width="10" height="10" as="geometry" />
        </mxCell>
        <mxCell id="en2-nNBvhGY65yUKxZ8V-35" value="ICatalog" style="text;html=1;align=center;verticalAlign=middle;resizable=0;points=[];autosize=1;strokeColor=none;fillColor=none;" vertex="1" parent="1">
          <mxGeometry x="50" y="220" width="70" height="30" as="geometry" />
        </mxCell>
        <mxCell id="en2-nNBvhGY65yUKxZ8V-36" value="" style="rounded=0;whiteSpace=wrap;html=1;" vertex="1" parent="1">
          <mxGeometry x="150" y="230" width="20" height="20" as="geometry" />
        </mxCell>
        <mxCell id="en2-nNBvhGY65yUKxZ8V-38" value="" style="rounded=0;whiteSpace=wrap;html=1;" vertex="1" parent="1">
          <mxGeometry x="545" y="250" width="20" height="20" as="geometry" />
        </mxCell>
        <mxCell id="en2-nNBvhGY65yUKxZ8V-41" value="" style="rounded=0;orthogonalLoop=1;jettySize=auto;html=1;endArrow=oval;endFill=0;sketch=0;sourcePerimeterSpacing=0;targetPerimeterSpacing=0;endSize=10;exitX=0.25;exitY=1;exitDx=0;exitDy=0;entryX=0.435;entryY=0.466;entryDx=0;entryDy=0;entryPerimeter=0;" edge="1" parent="1" source="en2-nNBvhGY65yUKxZ8V-9" target="en2-nNBvhGY65yUKxZ8V-1">
          <mxGeometry relative="1" as="geometry">
            <mxPoint x="970" y="320" as="sourcePoint" />
            <mxPoint x="1050" y="320" as="targetPoint" />
            <Array as="points">
              <mxPoint x="825" y="390" />
            </Array>
          </mxGeometry>
        </mxCell>
        <mxCell id="en2-nNBvhGY65yUKxZ8V-45" value="INotification" style="text;html=1;align=center;verticalAlign=middle;resizable=0;points=[];autosize=1;strokeColor=none;fillColor=none;" vertex="1" parent="1">
          <mxGeometry x="485" y="360" width="90" height="30" as="geometry" />
        </mxCell>
        <mxCell id="en2-nNBvhGY65yUKxZ8V-46" value="" style="rounded=0;orthogonalLoop=1;jettySize=auto;html=1;endArrow=halfCircle;endFill=0;endSize=6;strokeWidth=1;sketch=0;exitX=0.5;exitY=1;exitDx=0;exitDy=0;" edge="1" parent="1" source="en2-nNBvhGY65yUKxZ8V-3">
          <mxGeometry relative="1" as="geometry">
            <mxPoint x="450" y="425" as="sourcePoint" />
            <mxPoint x="320" y="410" as="targetPoint" />
          </mxGeometry>
        </mxCell>
        <mxCell id="en2-nNBvhGY65yUKxZ8V-47" value="" style="rounded=0;orthogonalLoop=1;jettySize=auto;html=1;endArrow=oval;endFill=0;sketch=0;sourcePerimeterSpacing=0;targetPerimeterSpacing=0;endSize=10;exitX=0.5;exitY=0;exitDx=0;exitDy=0;entryX=0.188;entryY=0.5;entryDx=0;entryDy=0;entryPerimeter=0;" edge="1" target="en2-nNBvhGY65yUKxZ8V-1" parent="1" source="en2-nNBvhGY65yUKxZ8V-5">
          <mxGeometry relative="1" as="geometry">
            <mxPoint x="410" y="425" as="sourcePoint" />
          </mxGeometry>
        </mxCell>
        <mxCell id="en2-nNBvhGY65yUKxZ8V-48" value="" style="ellipse;whiteSpace=wrap;html=1;align=center;aspect=fixed;fillColor=none;strokeColor=none;resizable=0;perimeter=centerPerimeter;rotatable=0;allowArrows=0;points=[];outlineConnect=1;" vertex="1" parent="1">
          <mxGeometry x="425" y="420" width="10" height="10" as="geometry" />
        </mxCell>
        <mxCell id="en2-nNBvhGY65yUKxZ8V-49" value="IUser" style="text;html=1;align=center;verticalAlign=middle;resizable=0;points=[];autosize=1;strokeColor=none;fillColor=none;" vertex="1" parent="1">
          <mxGeometry x="320" y="395" width="50" height="30" as="geometry" />
        </mxCell>
        <mxCell id="en2-nNBvhGY65yUKxZ8V-50" value="" style="rounded=0;orthogonalLoop=1;jettySize=auto;html=1;endArrow=halfCircle;endFill=0;endSize=6;strokeWidth=1;sketch=0;exitX=0.5;exitY=1;exitDx=0;exitDy=0;" edge="1" parent="1">
          <mxGeometry relative="1" as="geometry">
            <mxPoint x="380" y="350" as="sourcePoint" />
            <mxPoint x="530" y="390" as="targetPoint" />
            <Array as="points">
              <mxPoint x="380" y="390" />
            </Array>
          </mxGeometry>
        </mxCell>
        <mxCell id="en2-nNBvhGY65yUKxZ8V-51" value="" style="rounded=0;orthogonalLoop=1;jettySize=auto;html=1;endArrow=halfCircle;endFill=0;endSize=6;strokeWidth=1;sketch=0;exitX=0.998;exitY=0.706;exitDx=0;exitDy=0;exitPerimeter=0;" edge="1" parent="1" source="en2-nNBvhGY65yUKxZ8V-3">
          <mxGeometry relative="1" as="geometry">
            <mxPoint x="630" y="415" as="sourcePoint" />
            <mxPoint x="460" y="410" as="targetPoint" />
          </mxGeometry>
        </mxCell>
        <mxCell id="en2-nNBvhGY65yUKxZ8V-52" value="" style="rounded=0;orthogonalLoop=1;jettySize=auto;html=1;endArrow=oval;endFill=0;sketch=0;sourcePerimeterSpacing=0;targetPerimeterSpacing=0;endSize=10;exitX=0;exitY=0.25;exitDx=0;exitDy=0;" edge="1" parent="1" source="en2-nNBvhGY65yUKxZ8V-11">
          <mxGeometry relative="1" as="geometry">
            <mxPoint x="590" y="415" as="sourcePoint" />
            <mxPoint x="460" y="410" as="targetPoint" />
          </mxGeometry>
        </mxCell>
        <mxCell id="en2-nNBvhGY65yUKxZ8V-53" value="" style="ellipse;whiteSpace=wrap;html=1;align=center;aspect=fixed;fillColor=none;strokeColor=none;resizable=0;perimeter=centerPerimeter;rotatable=0;allowArrows=0;points=[];outlineConnect=1;" vertex="1" parent="1">
          <mxGeometry x="605" y="410" width="10" height="10" as="geometry" />
        </mxCell>
        <mxCell id="en2-nNBvhGY65yUKxZ8V-54" value="IReservationDataAccess" style="text;html=1;align=center;verticalAlign=middle;resizable=0;points=[];autosize=1;strokeColor=none;fillColor=none;" vertex="1" parent="1">
          <mxGeometry x="410" y="414" width="150" height="30" as="geometry" />
        </mxCell>
        <mxCell id="en2-nNBvhGY65yUKxZ8V-55" value="" style="rounded=0;orthogonalLoop=1;jettySize=auto;html=1;endArrow=halfCircle;endFill=0;endSize=6;strokeWidth=1;sketch=0;exitX=0.5;exitY=1;exitDx=0;exitDy=0;" edge="1" parent="1" source="en2-nNBvhGY65yUKxZ8V-7">
          <mxGeometry relative="1" as="geometry">
            <mxPoint x="630" y="455" as="sourcePoint" />
            <mxPoint x="600" y="420" as="targetPoint" />
          </mxGeometry>
        </mxCell>
        <mxCell id="en2-nNBvhGY65yUKxZ8V-56" value="" style="rounded=0;orthogonalLoop=1;jettySize=auto;html=1;endArrow=oval;endFill=0;sketch=0;sourcePerimeterSpacing=0;targetPerimeterSpacing=0;endSize=10;exitX=0.5;exitY=0;exitDx=0;exitDy=0;" edge="1" parent="1" source="en2-nNBvhGY65yUKxZ8V-11">
          <mxGeometry relative="1" as="geometry">
            <mxPoint x="590" y="455" as="sourcePoint" />
            <mxPoint x="600" y="420" as="targetPoint" />
          </mxGeometry>
        </mxCell>
        <mxCell id="en2-nNBvhGY65yUKxZ8V-57" value="" style="ellipse;whiteSpace=wrap;html=1;align=center;aspect=fixed;fillColor=none;strokeColor=none;resizable=0;perimeter=centerPerimeter;rotatable=0;allowArrows=0;points=[];outlineConnect=1;" vertex="1" parent="1">
          <mxGeometry x="605" y="450" width="10" height="10" as="geometry" />
        </mxCell>
        <mxCell id="en2-nNBvhGY65yUKxZ8V-58" value="IBookDataAccess" style="text;html=1;align=center;verticalAlign=middle;resizable=0;points=[];autosize=1;strokeColor=none;fillColor=none;" vertex="1" parent="1">
          <mxGeometry x="595" y="410" width="120" height="30" as="geometry" />
        </mxCell>
        <mxCell id="en2-nNBvhGY65yUKxZ8V-59" value="" style="rounded=0;orthogonalLoop=1;jettySize=auto;html=1;endArrow=halfCircle;endFill=0;endSize=6;strokeWidth=1;sketch=0;exitX=0;exitY=0.5;exitDx=0;exitDy=0;" edge="1" parent="1" source="en2-nNBvhGY65yUKxZ8V-13">
          <mxGeometry relative="1" as="geometry">
            <mxPoint x="730" y="455" as="sourcePoint" />
            <mxPoint x="730" y="515" as="targetPoint" />
          </mxGeometry>
        </mxCell>
        <mxCell id="en2-nNBvhGY65yUKxZ8V-60" value="" style="rounded=0;orthogonalLoop=1;jettySize=auto;html=1;endArrow=oval;endFill=0;sketch=0;sourcePerimeterSpacing=0;targetPerimeterSpacing=0;endSize=10;exitX=1;exitY=0.5;exitDx=0;exitDy=0;" edge="1" parent="1" source="en2-nNBvhGY65yUKxZ8V-11">
          <mxGeometry relative="1" as="geometry">
            <mxPoint x="690" y="455" as="sourcePoint" />
            <mxPoint x="730" y="515" as="targetPoint" />
          </mxGeometry>
        </mxCell>
        <mxCell id="en2-nNBvhGY65yUKxZ8V-61" value="" style="ellipse;whiteSpace=wrap;html=1;align=center;aspect=fixed;fillColor=none;strokeColor=none;resizable=0;perimeter=centerPerimeter;rotatable=0;allowArrows=0;points=[];outlineConnect=1;" vertex="1" parent="1">
          <mxGeometry x="705" y="450" width="10" height="10" as="geometry" />
        </mxCell>
        <mxCell id="en2-nNBvhGY65yUKxZ8V-62" value="IDataAnalytics" style="text;html=1;align=center;verticalAlign=middle;resizable=0;points=[];autosize=1;strokeColor=none;fillColor=none;" vertex="1" parent="1">
          <mxGeometry x="685" y="480" width="100" height="30" as="geometry" />
        </mxCell>
        <mxCell id="en2-nNBvhGY65yUKxZ8V-63" value="" style="rounded=0;orthogonalLoop=1;jettySize=auto;html=1;endArrow=halfCircle;endFill=0;endSize=6;strokeWidth=1;sketch=0;exitX=0.25;exitY=1;exitDx=0;exitDy=0;" edge="1" parent="1" source="en2-nNBvhGY65yUKxZ8V-13">
          <mxGeometry relative="1" as="geometry">
            <mxPoint x="640" y="505" as="sourcePoint" />
            <mxPoint x="600" y="590" as="targetPoint" />
            <Array as="points">
              <mxPoint x="825" y="590" />
            </Array>
          </mxGeometry>
        </mxCell>
        <mxCell id="en2-nNBvhGY65yUKxZ8V-64" value="" style="rounded=0;orthogonalLoop=1;jettySize=auto;html=1;endArrow=oval;endFill=0;sketch=0;sourcePerimeterSpacing=0;targetPerimeterSpacing=0;endSize=10;exitX=0.75;exitY=1;exitDx=0;exitDy=0;" edge="1" parent="1" source="en2-nNBvhGY65yUKxZ8V-5">
          <mxGeometry relative="1" as="geometry">
            <mxPoint x="600" y="505" as="sourcePoint" />
            <mxPoint x="600" y="590" as="targetPoint" />
            <Array as="points">
              <mxPoint x="365" y="590" />
            </Array>
          </mxGeometry>
        </mxCell>
        <mxCell id="en2-nNBvhGY65yUKxZ8V-65" value="" style="ellipse;whiteSpace=wrap;html=1;align=center;aspect=fixed;fillColor=none;strokeColor=none;resizable=0;perimeter=centerPerimeter;rotatable=0;allowArrows=0;points=[];outlineConnect=1;" vertex="1" parent="1">
          <mxGeometry x="615" y="500" width="10" height="10" as="geometry" />
        </mxCell>
        <mxCell id="en2-nNBvhGY65yUKxZ8V-66" value="IReservationAnalytics" style="text;html=1;align=center;verticalAlign=middle;resizable=0;points=[];autosize=1;strokeColor=none;fillColor=none;" vertex="1" parent="1">
          <mxGeometry x="530" y="600" width="140" height="30" as="geometry" />
        </mxCell>
      </root>
    </mxGraphModel>
  </diagram>
</mxfile>
